<svg xmlns="http://www.w3.org/2000/svg" viewBox="0 9.470000267028809 148.0500030517578 35.78999710083008" data-asc="0.9052734375" width="148.0500030517578" height="35.78999710083008"><defs/><g fill="#000000"><g transform="translate(0, 0)"><path d="M13.87 45.26L0 9.47L5.13 9.47L14.43 35.47Q15.55 38.60 16.31 41.33Q17.14 38.40 18.24 35.47L27.91 9.47L32.74 9.47L18.73 45.26L13.87 45.26ZM37.79 45.26L37.79 9.47L42.53 9.47L42.53 45.26L37.79 45.26ZM50.73 45.26L50.73 9.47L57.86 9.47L66.33 34.81Q67.50 38.35 68.04 40.11Q68.65 38.16 69.95 34.38L78.52 9.47L84.89 9.47L84.89 45.26L80.32 45.26L80.32 15.31L69.92 45.26L65.65 45.26L55.30 14.79L55.30 45.26L50.73 45.26ZM88.60 45.26L102.34 9.47L107.45 9.47L122.09 45.26L116.70 45.26L112.52 34.42L97.56 34.42L93.63 45.26L88.60 45.26M98.93 30.57L111.06 30.57L107.32 20.65Q105.62 16.14 104.79 13.23Q104.10 16.67 102.86 20.07L98.93 30.57ZM125.68 45.26L125.68 9.47L130.42 9.47L130.42 41.04L148.05 41.04L148.05 45.26L125.68 45.26Z"/></g></g></svg>