<svg xmlns="http://www.w3.org/2000/svg" viewBox="0 13.380000114440918 214.3300018310547 137.5574188232422" data-asc="1.02197265625" width="214.3300018310547" height="137.5574188232422"><defs/><g fill="#000000"><g transform="translate(0, 0)"><path d="M6.79 60.16Q3.59 54.98 1.79 49.28Q0 43.58 0 36.79Q0 29.98 1.79 24.27Q3.59 18.55 6.79 13.38L9.23 14.58Q6.25 19.48 4.77 25.18Q3.30 30.88 3.30 36.79Q3.30 42.70 4.77 48.38Q6.25 54.05 9.23 58.96L6.79 60.16ZM25.81 59.33L11.79 14.53L14.67 14.53L28.69 59.33L25.81 59.33ZM29.81 57.52L29.81 54.79L54.35 54.79L54.35 57.52L29.81 57.52ZM55.47 59.33L69.53 14.53L72.41 14.53L58.35 59.33L55.47 59.33ZM77.39 60.16L74.93 58.96Q77.91 54.05 79.39 48.38Q80.88 42.70 80.88 36.79Q80.88 30.88 79.39 25.18Q77.91 19.48 74.93 14.58L77.39 13.38Q80.59 18.55 82.40 24.27Q84.20 29.98 84.20 36.79Q84.20 43.58 82.40 49.28Q80.59 54.98 77.39 60.16Z"/></g><g transform="translate(0, 45.8037109375)"><path d="M6.79 60.16Q3.59 54.98 1.79 49.28Q0 43.58 0 36.79Q0 29.98 1.79 24.27Q3.59 18.55 6.79 13.38L9.23 14.58Q6.25 19.48 4.77 25.18Q3.30 30.88 3.30 36.79Q3.30 42.70 4.77 48.38Q6.25 54.05 9.23 58.96L6.79 60.16ZM32.28 28.54L31.52 20.09L31.40 15.50L35.64 15.50L35.52 20.09L34.72 28.54L32.28 28.54ZM40.48 57.52L40.48 54.79L65.01 54.79L65.01 57.52L40.48 57.52ZM70.65 28.54L69.90 20.09L69.78 15.50L74.02 15.50L73.90 20.09L73.10 28.54L70.65 28.54ZM82.62 60.16L80.15 58.96Q83.13 54.05 84.62 48.38Q86.11 42.70 86.11 36.79Q86.11 30.88 84.62 25.18Q83.13 19.48 80.15 14.58L82.62 13.38Q85.82 18.55 87.62 24.27Q89.43 29.98 89.43 36.79Q89.43 43.58 87.62 49.28Q85.82 54.98 82.62 60.16Z"/></g><g transform="translate(0, 91.607421875)"><path d="M0 59.33L14.06 14.53L16.94 14.53L2.88 59.33L0 59.33ZM35.40 44.26L35.40 40.80L46.44 36.67L53.34 34.11L53.34 33.89L46.44 31.32L35.40 27.20L35.40 23.75L57.37 32.40L57.37 35.60L35.40 44.26ZM79.91 51.10L79.91 17.26L83.91 17.26L83.91 31.52L100 31.52L100 17.26L104.03 17.26L104.03 51.10L100 51.10L100 35.03L83.91 35.03L83.91 51.10L79.91 51.10ZM123.02 51.71Q119.73 51.71 117.03 50.15Q114.33 48.58 112.73 45.65Q111.13 42.72 111.13 38.65Q111.13 34.57 112.73 31.62Q114.33 28.66 116.89 27.08Q119.46 25.49 122.31 25.49Q127.03 25.49 129.61 28.64Q132.20 31.79 132.20 37.21Q132.20 38.57 132.06 39.53L115.04 39.53Q115.23 43.60 117.53 46.09Q119.82 48.58 123.49 48.58Q125.37 48.58 126.93 48.08Q128.49 47.58 129.83 46.68L131.23 49.15Q129.59 50.27 127.61 50.99Q125.63 51.71 123.02 51.71M114.99 36.67L128.71 36.67Q128.71 32.74 127.05 30.69Q125.39 28.64 122.36 28.64Q119.65 28.64 117.52 30.74Q115.38 32.84 114.99 36.67ZM142.70 51.71Q140.45 51.71 139.44 50.33Q138.43 48.95 138.43 46.31L138.43 14.36L142.38 14.36L142.38 46.63Q142.38 47.63 142.75 48.03Q143.12 48.44 143.63 48.44Q143.82 48.44 144.01 48.43Q144.19 48.41 144.51 48.34L145.02 51.29Q144.60 51.46 144.02 51.59Q143.43 51.71 142.70 51.71ZM155.66 51.71Q153.42 51.71 152.40 50.33Q151.39 48.95 151.39 46.31L151.39 14.36L155.35 14.36L155.35 46.63Q155.35 47.63 155.71 48.03Q156.08 48.44 156.59 48.44Q156.79 48.44 156.97 48.43Q157.15 48.41 157.47 48.34L157.98 51.29Q157.57 51.46 156.98 51.59Q156.40 51.71 155.66 51.71ZM173.97 51.71Q170.95 51.71 168.32 50.17Q165.70 48.63 164.10 45.72Q162.50 42.80 162.50 38.65Q162.50 34.47 164.10 31.53Q165.70 28.59 168.32 27.04Q170.95 25.49 173.97 25.49Q177.05 25.49 179.69 27.04Q182.32 28.59 183.92 31.53Q185.52 34.47 185.52 38.65Q185.52 42.80 183.92 45.72Q182.32 48.63 179.69 50.17Q177.05 51.71 173.97 51.71M173.97 48.44Q177.32 48.44 179.39 45.74Q181.47 43.04 181.47 38.65Q181.47 34.23 179.39 31.51Q177.32 28.78 173.97 28.78Q171.80 28.78 170.12 30.03Q168.43 31.27 167.49 33.48Q166.55 35.69 166.55 38.65Q166.55 43.04 168.63 45.74Q170.70 48.44 173.97 48.44ZM210.03 41.02L209.47 21.22L209.38 16.58L213.40 16.58L213.28 21.22L212.77 41.02L210.03 41.02M211.38 51.71Q210.18 51.71 209.31 50.87Q208.45 50.02 208.45 48.63Q208.45 47.24 209.31 46.36Q210.18 45.48 211.38 45.48Q212.60 45.48 213.46 46.36Q214.33 47.24 214.33 48.63Q214.33 50.02 213.46 50.87Q212.60 51.71 211.38 51.71Z"/></g></g></svg>